/* XPM */
static char *result[] = {
/* columns rows colors chars-per-pixel */
"16 16 17 1 ",
"  c #1D1D1C",
". c #3D253B",
"X c #3E373D",
"o c #4D0A1A",
"O c #4D1446",
"+ c #6D1D51",
"@ c #625353",
"# c #AC162D",
"$ c #D31212",
"% c #F26E26",
"& c #8B1842",
"* c #897A71",
"= c #E84444",
"- c #6AC81F",
"; c #049050",
": c #C1F567",
"> c None",
/* pixels */
">>>>>>>>>>>>>>>>",
">>> >>    >> >>>",
">> *  %%%%  * >>",
">> @X%=====X@ >>",
">> X%=$#oo==X >>",
">> %=$#o--o== >>",
">> =$#o-;:-o$ >>",
">> #$#o-;;-o$ >>",
">> &$$#o--o#$ >>",
">> +&$$#oo&$. >>",
">>> +&$$&&$& >>>",
">>>> &o$&$o+ >>>",
">>>> +o&o&o >>>>",
">>>> O O O >>>>>",
">>>>> > > >>>>>>",
">>>>>>>>>>>>>>>>"
};
