/* XPM */
static char *result[] = {
/* columns rows colors chars-per-pixel */
"16 16 17 1 ",
"  c #1D1D1C",
". c #3E373D",
"X c #4D0A1A",
"o c #3D3F4B",
"O c #4D1446",
"+ c #6D1D51",
"@ c #625353",
"# c #67656D",
"$ c #AC162D",
"% c #D31212",
"& c #F26E26",
"* c #8B1842",
"= c #897A71",
"- c #E84444",
"; c #C1F567",
": c #8F8685",
"> c None",
/* pixels */
">>>>>>>>>>>>>>>>",
">>>>>>>>>>>>>>>>",
">>>>>>>>>>>>>>>>",
">>>>>> >>>> >>>>",
">>> > =    =  >>",
">> & X@&&&&@ - >",
">> -&X.-;-;.-- >",
">> -$&X%XX%X$- >",
">> -$$*O$$O*$- >",
">> %$O&&++-O$% >",
">> $O&--&&--O$ >",
">>> O-X%--X-O >>",
">>>> %X*$$X% >>>",
">>>>> X%$%X >>>>",
">>>>>> %-X- >>>>",
">>>>>> o#:#: >>>"
};
