/* XPM */
static char *result[] = {
/* columns rows colors chars-per-pixel */
"16 16 6 1 ",
"  c black",
". c #FFD700",
"X c #FFC700",
"o c #FFDF00",
"O c #FFF700",
"+ c None",
/* pixels */
"++++++++++++++++",
"++++++   +++++++",
"+++++ ..O ++++++",
"++++ ...oO +++++",
"+++ ...oOoo ++++",
"+++ ...oXOo ++++",
"+++ ...oXOo ++++",
"+++ ...oXOo ++++",
"+++ ...oXOo ++++",
"+++ ...oXOo ++++",
"+++ ...oXOo ++++",
"+++ ...oXoo ++++",
"++++ ...oo +++++",
"+++++ ... ++++++",
"++++++   +++++++",
"++++++++++++++++"
};