/* XPM */
static char *result[] = {
/* columns rows colors chars-per-pixel */
"16 16 17 1 ",
"  c #33060F",
". c #360D0D",
"X c #5C1D08",
"o c #4D1A1A",
"O c #731118",
"+ c #472318",
"@ c #732F18",
"# c #5E3D22",
"$ c #8F1F13",
"% c #A83122",
"& c #8F5D33",
"* c #CF5521",
"= c #D47D2C",
"- c #F07E26",
"; c #FFA929",
": c #FFCF70",
"> c None",
/* pixels */
">>>>>>>>>>>>>>>>",
">>>>>>>>>>>>>>>>",
">>>>>>>>XXX@@>>>",
">>>>>>>> #&==@>>",
">>>>>>>> #+#&&X>",
">>>>>>>>> ++&&+ ",
">>>>>>>>O-- #++ ",
">>>>>>>O-;;* + >",
">>>>$$$;;::%  >>",
" XXO-;;;::*%.>>>",
" =&-;;:::**-.>>>",
" &#**---**-O>>>>",
"> $%%*----O>>>>>",
">>..*---OO>>>>>>",
">>>>oooo>>>>>>>>",
">>>>>>>>>>>>>>>>"
};
