/* XPM */
static char *result[] = {
/* columns rows colors chars-per-pixel */
"16 16 22 1 ",
"  c #210707",
". c #240C07",
"X c #240918",
"o c #360717",
"O c #400101",
"+ c #4F1A12",
"@ c #63000D",
"# c #783311",
"$ c #66102D",
"% c #6E2D23",
"& c #784A24",
"* c #8C030E",
"= c #BF0426",
"- c #8F5D33",
"; c #D47D2C",
": c #CF7D3E",
"> c #BF3459",
", c #B87742",
"< c #D44A4C",
"1 c #F7B174",
"2 c white",
"3 c transparent",
/* pixels */
"33333333..333333",
"333333++--.33333",
"33333+;;-%.33333",
"33333+;-%.333333",
"333333.%-&.33333",
"3333333.-:.33333",
"333333X&%:&+3333",
"333#OO,&X&,+3333",
"33#1>>%X3X,+3333",
"3@1>2$>o X- 3333",
"3@1*$$=o1>>O3333",
"3@<**=o1>2$>O333",
"33@<<>o1*$$=O333",
"333@@oo<**=>O333",
"3333333@<<>O3333",
"33333333@@@33333"
};
