/* XPM */
static char *_41c2d6eb0e640b3b2ca4a347628474fzwOPrXNQZ0c3oxVh[] = {
/* columns rows colors chars-per-pixel */
"16 16 17 1 ",
"  c None",
". c #031426",
"X c #043D3D",
"o c #400101",
"O c #590006",
"+ c #700624",
"@ c #1E4044",
"# c #006554",
"$ c #A60311",
"% c #8C042D",
"& c #D90718",
"* c #F53218",
"= c #E66617",
"- c #5AB552",
"; c #E88E17",
": c #9DE64E",
"> c #F7F3B7",
/* pixels */
"         XX     ",
"     XXX.:X XXX ",
"     .::.:-.::X ",
"     o.-#@-#-.  ",
"    o;;=&&$#X.  ",
"   O>>&*;**$--XX",
"  O;>>;*$$*&$::X",
"  O;*;;&$*;&$.. ",
"  O;**$*=*$%&-:X",
" o=*;&&*&$+%&.:X",
" o=$&&=&%++$&..X",
" o=$$%%%++$&o   ",
" o*&$$%%$&&o    ",
"  o===**OOO     ",
"   OOOOO        ",
"                "
};
