/* XPM */
static char *_f0aca5daa1a4465c70b2ffb430c14fcat5jtG36pDxa7wmh[] = {
/* columns rows colors chars-per-pixel */
"16 16 19 1 ",
"  c None",
". c #210707",
"X c #031426",
"o c #043D3D",
"O c #4F1A12",
"+ c #660A2A",
"@ c #7D3224",
"# c #B33712",
"$ c #BF410B",
"% c #A85738",
"& c #F25C05",
"* c #E87400",
"= c #5AB552",
"- c #F29F05",
"; c #FCC326",
": c #D68854",
"> c #9DE64E",
", c #FFDA5E",
"< c #F7F3B7",
/* pixels */
"       Xoooo    ",
"      X>===o    ",
"    OO>=>>X     ",
"    O:.>>X      ",
"    O%@XX*++    ",
"   +&.@&&-,<#   ",
"  #*<<**---<<#  ",
"  #,<<,-----<#  ",
"  #,-,,-<---,#  ",
"  +,------**-+  ",
"  +------$$*-+  ",
"  +;-**&&$$--+  ",
"   +;-**&&-;+   ",
"    +;;;;;;+    ",
"     ######     ",
"                "
};
