/* XPM */
static char *_128bd46113845e2c05f715df53d513bEqzA23mrmVdE92N1[] = {
/* columns rows colors chars-per-pixel */
"16 16 22 1 ",
"  c None",
". c #031426",
"X c #381331",
"o c #072933",
"O c #692040",
"+ c #0F4D4A",
"@ c #1E4044",
"# c #006554",
"$ c #992C5D",
"% c #A34B70",
"& c #AB607E",
"* c #26854C",
"= c #5AB552",
"- c #9DE64E",
"; c #DE7889",
": c #D66B9A",
"> c #CC7E9D",
", c #E381AA",
"< c #FF99A0",
"1 c #FFABAB",
"2 c #FFCA99",
"3 c #FFFADB",
/* pixels */
"                ",
"       ++++     ",
"      o*--*.    ",
"      oo#==#..  ",
"    $$><<>..**+ ",
"   $23322%%.@=*+",
"  O2332,,22<@=-+",
"  O2<2:22232<.-+",
" O2;;%2<<<222.*.",
" O2>;2;<<<<<2.. ",
" X1&&<;;>><<2.  ",
" X1&&>;;><<1O   ",
" X1<>>><111O    ",
"  O12222$$$     ",
"   OO$$$        ",
"                "
};
