/* XPM */
static char *result[] = {
/* columns rows colors chars-per-pixel */
"16 16 13 1 ",
"  c black",
". c #210707",
"X c #572A28",
"o c #754434",
"O c #3B314D",
"+ c #6C5C7D",
"@ c #945A3B",
"# c #917EA6",
"$ c #B4A7C2",
"% c #D4C1E8",
"& c #DECEED",
"* c #F7F0FF",
"= c None",
/* pixels */
"================",
"================",
"=========     ==",
"======   ***** =",
"====  ***%%$$** ",
"=== **%&&&&%$$*O",
"== *$$&&&%$##*$.",
"= *$$%%$+++**$o.",
"= **####***$@oX.",
"= $*****$@@ooXX ",
"= oXoX@@@@@@Xo =",
"== XX@o@@@@o@X =",
"=== oX@@@@@@o ==",
"====  o@@@o  ===",
"======     =====",
"================"
};
