/* XPM */
static char *result[] = {
/* columns rows colors chars-per-pixel */
"16 16 12 1 ",
"  c black",
". c #6E1402",
"X c #BA340B",
"o c #BF320F",
"O c #CC4008",
"+ c #F25C05",
"@ c #E87400",
"# c #F29F05",
"$ c #FFC640",
"% c #FFDA5E",
"& c #F7F3B7",
"* c None",
/* pixels */
"****************",
"****************",
"****************",
"******    ******",
"****  &%$@  ****",
"*** &&#####@ ***",
"** X&&%#%##@. **",
"* $@#%%##$#@O# *",
"* #@@#####@OO@ *",
"** o@@@+++OO. **",
"*** ##@@++## ***",
"****  ####  ****",
"******    ******",
"****************",
"****************",
"****************"
};
